<?xml version="1.0" encoding="UTF-8" standalone="no"?>
<!-- Created with Inkscape (http://www.inkscape.org/) -->

<svg
   xmlns:dc="http://purl.org/dc/elements/1.1/"
   xmlns:cc="http://creativecommons.org/ns#"
   xmlns:rdf="http://www.w3.org/1999/02/22-rdf-syntax-ns#"
   xmlns:svg="http://www.w3.org/2000/svg"
   xmlns="http://www.w3.org/2000/svg"
   xmlns:sodipodi="http://sodipodi.sourceforge.net/DTD/sodipodi-0.dtd"
   xmlns:inkscape="http://www.inkscape.org/namespaces/inkscape"
   width="48"
   height="48"
   viewBox="0 0 48 48"
   id="svg2"
   version="1.1"
   inkscape:version="0.91 r13725"
   sodipodi:docname="logo.svg">
  <defs
     id="defs4" />
  <sodipodi:namedview
     id="base"
     pagecolor="#ffffff"
     bordercolor="#000"
     borderopacity="1.0"
     inkscape:pageopacity="0.0"
     inkscape:pageshadow="2"
     inkscape:zoom="4"
     inkscape:cx="14.97025"
     inkscape:cy="-6.3402175"
     inkscape:document-units="px"
     inkscape:current-layer="layer1"
     showgrid="false"
     units="px"
     inkscape:window-width="1366"
     inkscape:window-height="643"
     inkscape:window-x="0"
     inkscape:window-y="25"
     inkscape:window-maximized="1" />
  <metadata
     id="metadata7">
    <rdf:RDF>
      <cc:Work
         rdf:about="">
        <dc:format>image/svg+xml</dc:format>
        <dc:type
           rdf:resource="http://purl.org/dc/dcmitype/StillImage" />
        <dc:title />
      </cc:Work>
    </rdf:RDF>
  </metadata>
  <g
     inkscape:label="Layer 1"
     inkscape:groupmode="layer"
     id="layer1"
     transform="translate(0,-1004.3622)">
    <path
       style="opacity:0.98000004;fill:#000000;fill-opacity:1;stroke:none;stroke-width:3;stroke-linecap:round;stroke-linejoin:round;stroke-miterlimit:4;stroke-dasharray:none;stroke-opacity:1"
       d="m 23.844283,1038.3436 c -7.707528,0.013 -9.180812,-4.622 -11.678999,-8.6458 -1.282128,-5.2978 -8.9118576,-7.1477 -9.7061367,-0.7451 -0.4229537,3.4094 2.896603,5.6965 6.0476952,3.2639 5.7576095,-4.4448 13.6806595,-23.5496 13.6806595,-23.5496 l 3.504885,0.01 c -5.448213,11.3322 -9.622985,19.6102 -13.380603,23.5462 -1.872848,1.9618 -5.3564778,3.8044 -8.4266833,2.6901 -6.3914218,-2.3804 -3.69554824,-12.1807 2.8524939,-12.1308 3.9868964,0.029 6.0033084,2.7592 7.2130564,5.9528 1.602244,4.2297 4.588376,7.6709 9.893632,9.608 z"
       id="path4298"
       inkscape:connector-curvature="0"
       sodipodi:nodetypes="ccssccscsscc" />
    <path
       style="opacity:0.98000004;fill:#000000;fill-opacity:1;stroke:none;stroke-width:3;stroke-linecap:round;stroke-linejoin:round;stroke-miterlimit:4;stroke-dasharray:none;stroke-opacity:1"
       d="m 16.85542,1031.4309 c 2.299406,-4.72 3.924967,-9.7518 9.241982,-8.4013 3.515281,0.8929 5.719342,7.2453 3.712621,9.131 -2.645303,2.4859 -5.988519,2.0049 -9.43543,1.86 3.598443,-0.9961 5.05504,-0.7093 6.601739,-2.5648 1.292022,-1.5498 0.488164,-4.5897 -1.266156,-5.5885 -3.01367,-1.7158 -3.857231,1.9772 -6.827803,7.531 -2.116368,4.0583 -7.736921,14.9518 -7.736921,14.9518 l -3.4905899,9e-4 c 0,0 6.7418719,-11.873 9.2005579,-16.9201 z"
       id="path4318"
       inkscape:connector-curvature="0"
       sodipodi:nodetypes="ssscsscccs" />
    <path
       style="opacity:0.98000004;fill:#000000;fill-opacity:1;stroke:none;stroke-width:3;stroke-linecap:round;stroke-linejoin:round;stroke-miterlimit:4;stroke-dasharray:none;stroke-opacity:1"
       d="m 37.518766,1034.0815 c 0,0 0.823312,-3.6688 1.015873,-5.2432 0.564057,-4.6118 -3.50422,-2.9111 -3.931622,-0.2909 -0.295567,1.812 -0.310379,5.534 -0.310379,5.534 l -2.484664,0 0.01636,-11.0897 2.587858,9e-4 0.01661,2.0619 c 1.89573,-2.3453 5.425952,-1.4449 5.941294,0.6325 2.14485,-3.0772 7.633044,-1.2815 7.125141,2.2672 -0.268636,2.4908 -1.764587,6.1276 -1.764587,6.1276 l -2.556816,0 c 0,0 1.580774,-4.3144 1.747186,-5.8737 0.318515,-2.9845 -2.930311,-1.7353 -3.363923,-0.4542 -0.442836,1.3083 -1.44804,6.3277 -1.44804,6.3277 z"
       id="path4336"
       inkscape:connector-curvature="0"
       sodipodi:nodetypes="csscccccccccsscc" />
  </g>
</svg>
