<?xml version="1.0" encoding="UTF-8" standalone="no"?>
<!-- Created with Inkscape (http://www.inkscape.org/) -->

<svg
   xmlns:dc="http://purl.org/dc/elements/1.1/"
   xmlns:cc="http://creativecommons.org/ns#"
   xmlns:rdf="http://www.w3.org/1999/02/22-rdf-syntax-ns#"
   xmlns:svg="http://www.w3.org/2000/svg"
   xmlns="http://www.w3.org/2000/svg"
   xmlns:sodipodi="http://sodipodi.sourceforge.net/DTD/sodipodi-0.dtd"
   xmlns:inkscape="http://www.inkscape.org/namespaces/inkscape"
   width="48"
   height="48"
   viewBox="0 0 48 48"
   id="svg2"
   version="1.1"
   inkscape:version="0.91 r13725"
   sodipodi:docname="logo-2.svg">
  <defs
     id="defs4" />
  <sodipodi:namedview
     id="base"
     pagecolor="#ffffff"
     bordercolor="#666666"
     borderopacity="1.0"
     inkscape:pageopacity="0.0"
     inkscape:pageshadow="2"
     inkscape:zoom="15.839192"
     inkscape:cx="30.739559"
     inkscape:cy="32.253981"
     inkscape:document-units="px"
     inkscape:current-layer="layer1"
     showgrid="false"
     units="px"
     inkscape:window-width="1366"
     inkscape:window-height="643"
     inkscape:window-x="0"
     inkscape:window-y="25"
     inkscape:window-maximized="1" />
  <metadata
     id="metadata7">
    <rdf:RDF>
      <cc:Work
         rdf:about="">
        <dc:format>image/svg+xml</dc:format>
        <dc:type
           rdf:resource="http://purl.org/dc/dcmitype/StillImage" />
        <dc:title />
      </cc:Work>
    </rdf:RDF>
  </metadata>
  <g
     inkscape:label="Layer 1"
     inkscape:groupmode="layer"
     id="layer1"
     transform="translate(0,-1004.3622)">
    <ellipse
       transform="matrix(0.99996159,-0.00876485,-0.02640091,0.99965144,0,0)"
       ry="14.394167"
       rx="22.136614"
       cy="1028.4552"
       cx="51.194088"
       id="ellipse4219"
       style="opacity:0.98000004;fill:#999999;fill-opacity:1;stroke:none;stroke-width:3;stroke-linecap:round;stroke-linejoin:round;stroke-miterlimit:4;stroke-dasharray:none;stroke-opacity:1" />
    <ellipse
       style="opacity:0.98000004;fill:#ececec;fill-opacity:1;stroke:none;stroke-width:3;stroke-linecap:round;stroke-linejoin:round;stroke-miterlimit:4;stroke-dasharray:none;stroke-opacity:1"
       id="path4277"
       cx="50.836529"
       cy="1027.8379"
       rx="22.136614"
       ry="14.394167"
       transform="matrix(0.99996159,-0.00876485,-0.02640091,0.99965144,0,0)" />
    <path
       style="opacity:0.98000004;fill:#4d4d4d;fill-opacity:1;stroke:none;stroke-width:3;stroke-linecap:round;stroke-linejoin:round;stroke-miterlimit:4;stroke-dasharray:none;stroke-opacity:1"
       d="m 21.710214,1011.3369 -5.100402,0.5543 c -0.992688,5.5474 -2.399835,7.9515 -3.686326,12.323 -6.8862466,-12.3751 -13.14457637,13.439 -4.1866124,11.5568 1.9055944,-0.7891 3.4693154,-5.1268 4.0717934,-3.6224 1.499265,2.7102 5.229622,5.968 8.460826,6.9366 -1.728848,-2.5311 -7.483742,-8.1257 -6.086712,-13.2568 1.39703,-5.1311 2.639291,-7.5875 6.527433,-14.4915 z m -10.840932,14.4278 c 1.351718,1.3665 -1.1219191,5.2376 -1.7851449,6.3913 -3.5211265,4.9277 -2.0171855,-12.7935 1.7851449,-6.3913 z"
       id="path4214"
       inkscape:connector-curvature="0"
       sodipodi:nodetypes="cccccczcccc" />
    <path
       style="opacity:0.98000004;fill:#4d4d4d;fill-opacity:1;stroke:none;stroke-width:3;stroke-linecap:round;stroke-linejoin:round;stroke-miterlimit:4;stroke-dasharray:none;stroke-opacity:1"
       d="m 19.440722,1025.2576 c -1.458578,9.9939 0.404491,25.5862 2.401428,24.0819 0.434011,-0.6464 1.530638,-2.7914 1.639629,-3.7627 0.218383,-1.9461 -0.322785,-2.9691 -0.383965,-5.4433 -0.4172,-5.7673 2.474164,-8.2211 4.457626,-11.353 2.021257,-3.0403 3.199545,-4.934 2.279033,-7.4811 -0.867385,-2.3998 -2.152851,-5.5686 -4.146912,-5.0566 -2.509662,0.489 -5.69619,6.4138 -6.246839,9.0148 z m 8.050313,-3.5127 c 1.412732,4.7207 -7.865735,15.7689 -6.326589,5.7972 0.723431,-4.6869 4.87016,-10.664 6.326589,-5.7972 z"
       id="path4216"
       inkscape:connector-curvature="0"
       sodipodi:nodetypes="ccsccsccsss" />
    <path
       style="opacity:0.98000004;fill:#4d4d4d;fill-opacity:1;stroke:none;stroke-width:3;stroke-linecap:round;stroke-linejoin:round;stroke-miterlimit:4;stroke-dasharray:none;stroke-opacity:1"
       d="m 38.146197,1022.2314 -3.528275,-0.021 c -4.57039,11.8662 -9.884404,14.9009 -13.497892,15.7617 3.018218,3.0772 10.367844,-4.2249 12.545303,-7.0012 1.253583,0.4261 -1.076815,2.6804 0.158887,3.9431 2.223511,-2.7314 2.772306,-0.885 5.471691,-3.6875 -1.312728,4.9529 4.404305,3.7982 8.00594,3.7516 0.906072,0.047 0.603244,-0.1791 0.05865,-0.2827 -0.719787,-0.1891 -1.354809,-0.5022 -2.132331,-0.6072 -1.134147,-0.059 -2.56642,0.2508 -3.384153,-0.2639 -0.38668,-0.6409 0.563121,-2.0025 1.012393,-3.7221 0.241841,-1.046 -0.844997,-1.4403 -2.071488,-1.2967 -0.856303,0.041 -2.017933,-0.029 -1.187945,-0.9933 0.742414,-1.1089 -1.596646,-0.987 -3.011723,-0.927 -1.130632,-1.3036 0.438902,-2.8148 1.560935,-4.6535 z"
       id="path4218"
       inkscape:connector-curvature="0"
       sodipodi:nodetypes="ccccccccccccccc" />
  </g>
</svg>
